#N canvas 608 346 709 481 10;
#X obj 250 90 osc~;
#X floatatom 120 70 5 0 0 0 - - -, f 5;
#X floatatom 150 210 5 0 0 0 - - -, f 5;
#X floatatom 180 70 5 0 0 0 - - -, f 5;
#X obj 150 170 + 3;
#X obj 260 150 s~ A;
#X connect 0 0 5 0;
#X connect 1 0 4 0;
#X connect 4 0 2 0;
